<svg width="18" height="18" viewBox="0 0 18 18" fill="none" xmlns="http://www.w3.org/2000/svg">
  <path d="M3 8.1C2.50294 8.1 2.1 8.50294 2.1 9C2.1 9.49706 2.50294 9.9 3 9.9L3 8.1ZM16.6364 9.6364C16.9879 9.28492 16.9879 8.71508 16.6364 8.3636L10.9088 2.63604C10.5574 2.28457 9.98751 2.28457 9.63604 2.63604C9.28457 2.98751 9.28457 3.55736 9.63604 3.90883L14.7272 9L9.63604 14.0912C9.28457 14.4426 9.28457 15.0125 9.63604 15.364C9.98751 15.7154 10.5574 15.7154 10.9088 15.364L16.6364 9.6364ZM3 9.9L16 9.9L16 8.1L3 8.1L3 9.9Z" fill="white"/>
</svg>