<svg width="452" height="512" viewBox="0 0 452 512" fill="none" xmlns="http://www.w3.org/2000/svg">
<path fill-rule="evenodd" clip-rule="evenodd" d="M41.0864 460.816L0 0H451.474L410.344 460.741L225.464 512L41.0864 460.816Z" fill="#0071BC"/>
<path fill-rule="evenodd" clip-rule="evenodd" d="M226.116 472.795L375.323 431.748L410.282 38.3764H226.116V472.795Z" fill="#29ABE2"/>
<path fill-rule="evenodd" clip-rule="evenodd" d="M94.0466 207.678L98.9959 264.112L226.116 207.678V151.152L94.0466 207.678Z" fill="#B3B3B3"/>
<path fill-rule="evenodd" clip-rule="evenodd" d="M366.906 90.8141L226.116 151.152V207.678L362.052 147.248L366.906 90.8141Z" fill="#E6E6E6"/>
<path fill-rule="evenodd" clip-rule="evenodd" d="M226.116 355.337L225.679 355.403L162.637 338.472L158.518 293.458H101.78L109.698 382.139L225.667 414.249L226.116 414.143V355.337Z" fill="#E6E6E6"/>
<path fill-rule="evenodd" clip-rule="evenodd" d="M226.116 207.678V264.112H295.138L288.864 337.896L226.116 355.386V414.187L341.701 382.077L356.921 207.678H226.116Z" fill="white"/>
<path fill-rule="evenodd" clip-rule="evenodd" d="M226.116 207.678H94.0466L98.9959 264.112H226.116V207.678Z" fill="#E6E6E6"/>
<path fill-rule="evenodd" clip-rule="evenodd" d="M226.116 147.248V90.8141H225.543H84.0127L89.0207 147.248H226.116Z" fill="#E6E6E6"/>
<path fill-rule="evenodd" clip-rule="evenodd" d="M226.116 90.8141V146.541V147.248H362.052L366.906 90.8141H226.116Z" fill="white"/>
</svg>
