<svg width="24" height="25" viewBox="0 0 24 25" fill="none" xmlns="http://www.w3.org/2000/svg">
<path d="M2.2925 11.7075C2.10486 11.5199 1.99944 11.2654 1.99944 11C1.99944 10.7346 2.10486 10.4801 2.2925 10.2925C2.48014 10.1049 2.73464 9.99944 3 9.99944C3.26536 9.99944 3.51986 10.1049 3.7075 10.2925L11 17.5863V1C11 0.734784 11.1054 0.48043 11.2929 0.292893C11.4804 0.105357 11.7348 0 12 0C12.2652 0 12.5196 0.105357 12.7071 0.292893C12.8946 0.48043 13 0.734784 13 1V17.5863L20.2925 10.2925C20.3854 10.1996 20.4957 10.1259 20.6171 10.0756C20.7385 10.0253 20.8686 9.99944 21 9.99944C21.1314 9.99944 21.2615 10.0253 21.3829 10.0756C21.5043 10.1259 21.6146 10.1996 21.7075 10.2925C21.8004 10.3854 21.8741 10.4957 21.9244 10.6171C21.9747 10.7385 22.0006 10.8686 22.0006 11C22.0006 11.1314 21.9747 11.2615 21.9244 11.3829C21.8741 11.5043 21.8004 11.6146 21.7075 11.7075L12.7075 20.7075C12.6146 20.8005 12.5043 20.8742 12.3829 20.9246C12.2615 20.9749 12.1314 21.0008 12 21.0008C11.8686 21.0008 11.7385 20.9749 11.6171 20.9246C11.4957 20.8742 11.3854 20.8005 11.2925 20.7075L2.2925 11.7075ZM23 23H1C0.734784 23 0.48043 23.1054 0.292893 23.2929C0.105357 23.4804 0 23.7348 0 24C0 24.2652 0.105357 24.5196 0.292893 24.7071C0.48043 24.8946 0.734784 25 1 25H23C23.2652 25 23.5196 24.8946 23.7071 24.7071C23.8946 24.5196 24 24.2652 24 24C24 23.7348 23.8946 23.4804 23.7071 23.2929C23.5196 23.1054 23.2652 23 23 23Z" fill="white"/>
</svg>
