<svg width="452" height="512" viewBox="0 0 452 512" fill="none" xmlns="http://www.w3.org/2000/svg">
<path fill-rule="evenodd" clip-rule="evenodd" d="M41.0852 460.819L0 0H451.456L410.327 460.746L225.451 512L41.0852 460.819Z" fill="#E44D26"/>
<path fill-rule="evenodd" clip-rule="evenodd" d="M225.728 472.824L375.116 431.408L410.263 37.6788H225.728V472.824Z" fill="#F16529"/>
<path d="M150.94 208.59H225.728V265.107H99.2525L84.0088 94.1969H225.728V150.715H145.775L150.94 208.59Z" fill="#EBEBEB"/>
<path d="M225.48 355.438L225.728 355.372V414.174L225.468 414.246L109.696 382.107L101.778 293.366H158.513L162.536 338.442L225.48 355.438Z" fill="#EBEBEB"/>
<path d="M225.532 94.1969H367.11L362.049 150.715H225.532V94.1969Z" fill="white"/>
<path d="M225.532 265.107V208.59H356.907L355.528 223.766L341.396 382.107L225.532 414.219V355.419L288.567 338.406L295.128 265.107H225.532Z" fill="white"/>
</svg>
